<svg width="1280" height="832" xmlns="http://www.w3.org/2000/svg">
    <rect width="1280" height="832" fill="rgb(3,4,94)" stroke="none"/>
    <path d="M16.4960811548915 33.450083243832246 C 60.60558928927388 2.856540501960211, 99.04448453197176 16.087087560951833, 171.93287739165328 10.575896400720094 C 244.8212702513348 5.064705240488355, 239.18768916203118 8.267709748129136, 308.04965259361757 11.405318602905286 C 376.911616025204 14.542927457681436, 374.9240767938428 26.261032637259177, 447.38073111799895 23.1263318198247 C 519.8373854421552 19.99163100239022, 520.0340496097741 9.174922156400397, 597.8762698902423 -1.1334846668326382 C 675.7184901707104 -11.441891490065673, 680.7377164591014 -20.176530198844638, 758.7496122398716 -18.10729547310744 C 836.7615080206417 -16.03806074737024, 838.1426198321652 5.009063110769426, 909.9238530133229 7.143454236116165 C 981.7050861944803 9.277845361462905, 958.8425490486914 -11.524113627498789, 1045.8745449645019 -9.569730971720482 C 1132.9065408803121 -7.615348315942175, 1203.1422412665465 -30.073671115838863, 1258.0518366765643 14.960984859229391 C 1312.961432086582 59.99564083429765, 1253.9202091401096 97.60213062508781, 1265.5129266045728 170.56889292855254 C 1277.105644069036 243.5356552320173, 1307.1735196717116 237.0913094696986, 1304.4227065344169 306.82803407308836 C 1301.6718933971222 376.56475867647816, 1260.8329871159408 376.0766653828533, 1254.509674055394 449.5157913421117 C 1248.1863609948477 522.95491730137, 1275.8962245225434 506.9357709597016, 1279.129454292231 600.5845379101218 C 1282.3626840619183 694.2333048605419, 1318.3230914285293 774.6130573856243, 1267.4425931341439 824.1108591437924 C 1216.5620948397582 873.6086609019603, 1156.2471764823476 793.0506282156771, 1075.607461114689 798.5757449427938 C 994.96774574703 804.1008616699105, 1016.6133713702347 833.7809663630266, 944.8837316635083 846.2113260522592 C 873.1540919567819 858.6416857414919, 866.0401503759178 850.0238924645305, 788.6889022877833 848.2971836997243 C 711.3376541996486 846.570474934918, 708.4860472697126 837.0217322467086, 635.4787393109698 839.3044909930344 C 562.4714313522268 841.5872497393603, 557.7808756685624 860.8215466786914, 496.6596704528117 857.4282186850278 C 435.53846523706096 854.0348906913641, 459.7130491088332 831.5851264000023, 390.99391844796673 825.73117901838 C 322.27478778710025 819.8772316367578, 315.60889686018743 835.301914799302, 221.7831478093458 834.0124291585386 C 127.95739875850413 832.722943517775, 66.4483055385558 865.2038668941518, 15.69092224460006 820.5732364553257 C -35.06646104935566 775.9426060164998, 14.556351952459735 726.2996051014425, 18.753614633522886 655.4899074032346 C 22.950877314586037 584.6802097050266, 39.917856162776964 603.6816863156668, 32.479972968852664 537.334445662494 C 25.042089774928364 470.98720500932137, -8.911562819900153 449.25341732164367, -10.99791814217431 390.10094479054396 C -13.084273464448469 330.9484722594442, 22.51136093068152 365.012274893679, 24.134551679756033 300.72455553809505 C 25.757742428830547 236.43683618251112, -2.5955375146601156 199.76868544177393, -4.50515514587625 132.95006736820824 C -6.4147727770923835 66.13144929464252, -27.613426979490885 64.04362598570428, 16.4960811548915 33.450083243832246 C 60.60558928927388 2.856540501960211, 99.04448453197176 16.087087560951833, 171.93287739165328 10.575896400720094" stroke="none" fill="#023E8A"></path><path d="M18.326862718234445 21.662260229407416 C 52.13549584533378 -15.470439999463716, 80.76270706835234 -4.105164411599548, 148.8272297620715 -2.5147155023776087 C 216.89175245579068 -0.9242665931556697, 215.48770777698786 22.85297918814215, 290.58495349311113 28.02405586629517 C 365.6821992092344 33.1951325444482, 374.94362885543876 22.168822187856396, 449.2162126265646 18.16959121023448 C 523.4887963976903 14.170360232612559, 514.3796191873837 11.330270870007675, 587.6752885776143 12.027131955807498 C 660.9709579678449 12.72399304160732, 670.0517105714356 21.81254011545322, 742.3988901874872 20.95703555343377 C 814.7460698035387 20.101530991414318, 803.1772090273759 8.219811107625738, 877.0640070418204 8.605113707729695 C 950.9508050562653 8.990416307833652, 942.3488769087417 20.64952438078202, 1037.9460822452659 22.498245953849597 C 1133.5432875817903 24.346967526917172, 1204.7270183587386 -16.067990784528295, 1259.4528283879179 16 C 1314.178638417097 48.0679907845283, 1254.8331924206382 81.05647449061593, 1256.8493223619826 150.77020909196278 C 1258.865452303327 220.48394369330967, 1261.9580435826224 218.74776125427988, 1267.5173481532954 294.8549384053875 C 1273.0766527239684 370.96211555649506, 1284.0196938892898 374.5335071498625, 1279.0865406446749 455.1989176963932 C 1274.15338740006 535.8643282429239, 1252.3156346973483 525.2467839970527, 1247.784735174836 617.5165805915103 C 1243.2538356523237 709.7863771859679, 1300.0887659977425 772.3010365591174, 1260.9629425546254 824.2781040742236 C 1221.8371191115082 876.2551715893297, 1165.9981324082482 825.8053280330295, 1091.2814414023674 825.4248506519351 C 1016.5647503964865 825.0443732708408, 1028.8280127721573 826.6629721533794, 962.0961785311018 822.756194549846 C 895.3643442900465 818.8494169463125, 901.3277011071134 815.2475272009199, 824.3541044381454 809.7977402378015 C 747.3805077691776 804.3479532746832, 729.8353475816592 800.1968773551048, 654.2017918552303 800.9570466973726 C 578.5682361288016 801.7172160396404, 577.8699266441076 811.2284247192744, 521.8198815324301 812.8384176068727 C 465.76983642075277 814.4484104944712, 485.90216313451754 805.1937515726522, 430.0016114085206 807.3970182477663 C 374.1010596825236 809.6002849228803, 364.8833717081757 817.5066562099304, 298.2176746284423 821.6514843073289 C 231.55197754870892 825.7963124047274, 232.3546317289843 825.4476660290941, 163.3388230895871 823.9763306373602 C 94.32301445018993 822.5049952456262, 55.25965872353921 853.4189956989918, 22.154440070853575 815.7661427403933 C -10.950778581832072 778.1132897817946, 34.42068110859751 753.4699071732422, 30.917948478844536 673.3649188029658 C 27.415215849091556 593.2599304326894, 15.57585643566658 586.769048201465, 8.143509551841657 495.3461892592876 C 0.711162668016736 403.9233303171102, -0.17373598191328288 395.0060089958013, 1.1885609435448519 307.67348303425615 C 2.5508578690029857 220.34095707271098, 9.308121810001795 217.5188911143191, 13.592697253674194 146.0160854131069 C 17.87727269734659 74.51327971189474, -15.481770408864882 58.794960458278545, 18.326862718234445 21.662260229407416 C 52.13549584533378 -15.470439999463716, 80.76270706835234 -4.105164411599548, 148.8272297620715 -2.5147155023776087" stroke="none" fill="#0077B6"></path><path d="M24 -3.910085910015386 C 72.20310228078647 -50.92603339931955, 115.06262302325993 -11.863808559733446, 204.7874777231554 -3.112009932268581 C 294.51233242305085 5.639788695196286, 302.3128376855354 24.719201236028788, 382.8994187995819 31.097108599844077 C 463.48599991362835 37.47501596365936, 455.376078061073 27.010995863812838, 527.1338021793413 22.39961952299257 C 598.8915262976096 17.788243182172298, 598.4773686034279 8.4789814646881, 669.9303152726553 12.651603236562995 C 741.3832619418828 16.824225008437885, 735.4348639413852 31.09709796153149, 812.9455888562509 39.09010661049214 C 890.4563137711167 47.08311525945279, 898.2219842616943 46.89688289736532, 979.9732149321185 44.6236378324056 C 1061.7244456025428 42.35039276744586, 1072.8643283543256 35.15303580875461, 1139.950511537948 29.99712635065321 C 1207.0366947215703 24.84121689255181, 1216.5959287762385 -12.678225882265824, 1248.3179476666078 24 C 1280.039966556977 60.67822588226582, 1266.5871534690548 105.12275731110981, 1266.8385870994252 176.7100298797165 C 1267.090020729796 248.2973024483232, 1249.4864815902217 240.98217678619548, 1249.3236821880898 310.34909027442677 C 1249.160882785958 379.7160037626581, 1266.7581900393996 378.6078114529461, 1266.187389490898 454.1776838326417 C 1265.6165889423962 529.7475562123374, 1249.5873273668076 523.0527523035548, 1247.0404799940832 612.6285797932092 C 1244.4936326213588 702.2044072828636, 1288.6481165947982 758.636164003067, 1256 812.4809937912594 C 1223.3518834052018 866.3258235794516, 1187.6165688418153 825.4735322719245, 1116.4480136148907 828.0078989459784 C 1045.2794583879659 830.5422656200323, 1034.230344777971 827.1838858935381, 971.3257790923009 822.6184604874747 C 908.4212134066308 818.0530350814114, 927.8737163523429 818.1274722617842, 864.8297508722108 809.7461973217252 C 801.7857853920787 801.3649223816661, 789.5154380897072 789.1101374321681, 719.1499171717725 789.0933607272384 C 648.7843962538377 789.0765840223089, 657.5162564180664 798.4978657304698, 583.3676672004717 809.6790905020068 C 509.21907798287697 820.8603152735438, 486.40843792192067 825.214212622594, 422.5555603013935 833.8182598133865 C 358.70268268086636 842.422307004179, 386.4205125074235 851.5129399879614, 327.9561567183631 844.0952792651767 C 269.49180092930277 836.6776185423918, 260.10616100330094 813.1714367385414, 188.69813714515203 804.1476169222473 C 117.29011328700308 795.1237971059531, 80.96134454122907 837.833560513154, 42.32406128576733 808 C 3.6867780303055966 778.1664394868461, 34.057316868096784 759.2793646445831, 34.14900412330509 684.8133748696316 C 34.240691378513404 610.34738509468, 46.25242535023805 593.3458611710195, 42.69081030660057 510.13604090019396 C 39.12919526296309 426.9262206293683, 27.581479375402928 433.27015900514056, 19.902543948755163 351.97409378632915 C 12.223608522107405 270.67802856751763, 10.950704587198315 273.92282494903424, 11.975068600009527 184.9517800249481 C 12.999432612820735 95.98073510086196, -24.20310228078647 43.105861579288785, 24 -3.910085910015386 C 72.20310228078647 -50.92603339931955, 115.06262302325993 -11.863808559733446, 204.7874777231554 -3.112009932268581" stroke="none" fill="#0096C7"></path><path d="M32 1.1639277097927945 C 79.39556232812998 -44.12680416021122, 120.21356131903491 28.273083433558767, 201.53497868043712 30.831814918043147 C 282.8563960418393 33.390546402527534, 283.5944467500047 16.49028183652044, 357.2856694456088 11.398853647730324 C 430.9768921412129 6.307425458940205, 427.5016935278145 -3.989856299710368, 496.2998694628534 10.466102162882674 C 565.0980453978923 24.922060625475716, 562.5942064075834 61.790394781109214, 632.4783731857644 69.22268749810249 C 702.3625399639454 76.65498021509578, 704.4364990755181 54.27025669921252, 775.8365365755773 40.19527303085578 C 847.2365740756364 26.12028936249905, 846.2868574503701 6.48612716862338, 918.0785231860012 12.922752824675566 C 989.8701889216321 19.359378480727752, 977.6794611533362 61.17246386123341, 1063.0031995181014 65.94177565506452 C 1148.3269378828666 70.71108744889563, 1214.217143432007 0.6796970638685806, 1259.373476645062 32 C 1304.529809858117 63.32030293613143, 1247.839873416571 113.85214600267649, 1243.6285323703207 191.2229873995902 C 1239.417191324071 268.5938287965039, 1236.581485381517 260.04708545576153, 1242.528112460062 341.4833655876549 C 1248.474739538607 422.9196457195482, 1263.3582903093607 435.67795619527396, 1267.415040684501 516.9681079271636 C 1271.4717910596416 598.2582596590532, 1263.6088741317492 595.4448608848393, 1258.7551139606237 666.6439725152134 C 1253.9013537894987 737.8430841455876, 1284.2973027604826 761.7028304577926, 1248 801.7645544486601 C 1211.7026972395174 841.8262784395275, 1186.9419643386593 827.8881268658133, 1113.5659029186936 826.8908684786832 C 1040.1898414987281 825.8936100915532, 1025.1057021856782 809.2932579809943, 954.4957543201375 797.7755209001399 C 883.8858064545967 786.2577838192856, 891.9427432940884 774.6968890985177, 831.1261114565307 780.8199201552658 C 770.309479618973 786.9429512120139, 784.2721495186049 817.0364611038262, 711.2292269699066 822.2676451271324 C 638.1863044212082 827.4988291504385, 629.1554326999948 809.3143933202412, 538.9544212617375 801.7446562484903 C 448.75340982348024 794.1749191767394, 429.61823654951013 796.3568671193905, 350.4251812168774 791.9886968401289 C 271.2321258842446 787.6205265608672, 301.8700540394159 782.2691493414761, 222.18219993120647 784.2719751314439 C 142.4943458229971 786.2748009214117, 78.09032278670865 839.1418652929824, 31.673764784039836 800 C -14.742793218628982 760.8581347070175, 37.13763944261484 705.8425858713036, 36.515967920531196 627.7045139595141 C 35.89429639844755 549.5664420477244, 29.392864950306375 551.167993135587, 29.187078695705253 487.44771235284156 C 28.981292441104138 423.7274315700961, 40.00141023407373 441.6866333172278, 35.692822902126714 372.8233908285322 C 31.384235570179698 303.9601483398366, 12.875935093448874 304.9096081777441, 11.952729367917197 211.9947423980592 C 11.02952364238552 119.07987661837436, -15.395562328129976 46.45465957979681, 32 1.1639277097927945 C 79.39556232812998 -44.12680416021122, 120.21356131903491 28.273083433558767, 201.53497868043712 30.831814918043147" stroke="none" fill="#00B4D8"></path><path d="M40 31.49474366591677 C 84.90370615144442 -1.2997021358158136, 146.4864107339847 37.910921439331666, 228.868361163413 41.45637354811768 C 311.2503115928413 45.00182565690369, 299.15359192765595 45.27187351738578, 369.52780171771315 45.67655210106083 C 439.9020115077704 46.081230684735864, 438.3076942378978 49.181863856455166, 510.36520032364194 43.075087882817854 C 582.422706409386 36.96831190918054, 583.9930534771255 23.960692094649435, 657.7578260606896 21.249448206511573 C 731.5225986442538 18.53820431837371, 728.4675144207367 27.30829726693426, 805.4242906578984 32.23011233026641 C 882.38106689506 37.151927393598555, 892.2484506537401 35.79676065252186, 965.5849310093362 40.93670845984016 C 1038.9214113649323 46.07665626715846, 1026.67045347944 53.02408067449965, 1098.7702120802828 52.78990355953961 C 1170.8699706811253 52.55572644457957, 1226.1143489924482 9.402897929468232, 1253.9839654127068 40 C 1281.8535818329653 70.59710207053179, 1217.9338789713215 104.66120121440578, 1210.2486777613171 175.17831184166673 C 1202.5634765513128 245.69542246892772, 1214.995904415833 250.12423692561885, 1223.243160572689 322.06844250904385 C 1231.4904167295451 394.0126480924689, 1241.7200942309828 382.11022824555926, 1243.2377023887416 462.9551341753669 C 1244.7553105465008 543.8000401051745, 1230.1230188009108 567.3326400229021, 1229.3135932037253 645.4480662282745 C 1228.50416760654 723.563492433647, 1275.8623512657257 737.7362524651365, 1240 775.4168389968565 C 1204.1376487342743 813.0974255285767, 1156.3829000083829 794.4966982027388, 1085.8641881408225 796.1704123551546 C 1015.3454762732621 797.8441265075703, 1025.318232596158 784.4225675060455, 957.9251525297584 782.1116956065197 C 890.5320724633588 779.8008237069937, 891.1749820286091 791.9376513378434, 816.2918678752243 786.9269247570509 C 741.4087537218395 781.9161981762584, 738.5156007852701 757.6234797832218, 658.3926959162192 762.0687892833497 C 578.2697910471683 766.5140987834776, 579.7576246099529 791.387518788935, 495.8002483990206 804.7081627575625 C 411.8428721880884 818.0288067261899, 404.14289648622054 819.0027047408225, 322.5631910724903 815.3513651578595 C 240.98348565876012 811.7000255748966, 238.70526883761957 795.9406457151754, 169.48142674409974 790.1028044257105 C 100.25758465057991 784.2649631362456, 77.88788843949226 832.4366101633519, 45.66782269841101 792 C 13.447756957329752 751.5633898366481, 45.045132001537645 706.4295274635889, 40.601163779774744 628.3563637723029 C 36.15719555801184 550.2832000810168, 30.942983462581115 558.0393782663955, 27.891949811359403 479.7073452348559 C 24.840916160137688 401.37531220331635, 23.05663248831892 391.79652876609657, 28.39702917488789 315.0282316461446 C 33.737425861456856 238.25993452619264, 46.35279385135724 243.517528750105, 49.25353655763527 172.63415675504802 C 52.154279263913295 101.75078475999106, -4.903706151444439 64.28918946764935, 40 31.49474366591677 C 84.90370615144442 -1.2997021358158136, 146.4864107339847 37.910921439331666, 228.868361163413 41.45637354811768" stroke="none" fill="#48CAE4"></path><path d="M48 75.09809375342036 C 86.27952066276895 27.130333594748734, 125.70241147291854 61.39840146589268, 205.8127911077075 50.521926152886614 C 285.9231707424965 39.64545083988055, 291.93207033259887 32.467786005867495, 368.44151853915594 31.59219250139609 C 444.95096674571306 30.716598996924695, 441.4785931167254 39.0934492487285, 511.8505839339359 47.01955213500101 C 582.2225747511466 54.94565502127352, 573.1578757116678 58.885606493446595, 649.9294818079982 63.296604046486145 C 726.7010879043287 67.70760159952567, 730.7872653325093 62.43434743332358, 818.9370083192578 64.66354234715918 C 907.0867513060061 66.89273726099479, 897.3539768686056 76.37926928861835, 1002.5284537549919 72.21338370182855 C 1107.702930641378 68.04749811503875, 1185.109511918807 11.922146099527552, 1239.6349158648027 48 C 1294.1603198107985 84.07785390047245, 1223.2463855251028 134.5872043896218, 1220.630069538975 216.52479930371834 C 1218.013753552847 298.4623942178149, 1225.509849501115 305.0264251744644, 1229.1696519202912 375.75037965638614 C 1232.8294543394675 446.47433413830794, 1232.1776658328697 431.65751949764496, 1235.26927921568 499.42061723140546 C 1238.3608925984897 567.1837149651661, 1242.3534252554512 581.2150986696851, 1241.5361054515313 646.8027705914284 C 1240.7187856476114 712.3904425131719, 1273.9725602163749 727.2382200765758, 1232 761.7713049183792 C 1190.0274397836254 796.3043897601826, 1145.6388991400465 788.8626811750358, 1073.6458645860325 784.9351099586423 C 1001.6528300320183 781.0075387422488, 1013.8653651412566 751.642489118777, 944.0278617839435 746.0610200528049 C 874.1903584266305 740.4795509868328, 865.5077601014575 756.3882886971809, 794.2958511567804 762.609233694754 C 723.0839422121032 768.8301786923272, 734.7307564304646 763.2960818201512, 659.1802260052351 770.9448000430974 C 583.6296955800058 778.5935182660436, 572.2641011064547 791.0160773112491, 492.0937294558627 793.204106586539 C 411.9233578052705 795.3921358618286, 422.58464697417645 783.5421659785385, 338.4987394028666 779.6969171442564 C 254.41283183155667 775.8516683099743, 229.36793387364156 776.7473405354747, 155.75009917062312 777.8231112494107 C 82.13226446760467 778.8988819633465, 63.529157431607615 817.8218608618764, 44.02740059079281 784 C 24.525643749978002 750.1781391381238, 78.8356066305739 713.7517955416502, 77.74307180736389 642.5356678019054 C 76.65053698415386 571.3195400621606, 46.78632188894281 576.0865087861944, 39.65726129795273 499.135489041021 C 32.52820070696264 422.1844692958476, 45.96746765373381 398.91721938457385, 49.22682944340357 334.73158882121186 C 52.48619123307332 270.54595825784986, 53.00141581748263 307.30134055452095, 52.694708456631744 242.39296678757307 C 52.38800109578085 177.4845930206252, 9.720479337231062 123.06585391209197, 48 75.09809375342036 C 86.27952066276895 27.130333594748734, 125.70241147291854 61.39840146589268, 205.8127911077075 50.521926152886614" stroke="none" fill="#90E0EF"></path><path d="M56 73.85395310397953 C 94.30764797690959 53.88429279935828, 137.10936082878882 93.69319870120425, 207.99741524796926 88.65481189890369 C 278.88546966714966 83.61642509660311, 264.2103850490467 62.60381217934981, 339.5522176767216 53.700405894777255 C 414.8940503043965 44.7969996102047, 420.8133402989053 51.82862716165015, 509.3647457586689 53.04118676061346 C 597.9161512184326 54.25374635957678, 605.4625871616112 59.02271663015664, 693.757839515776 58.550644290630515 C 782.0530918699409 58.078571951104394, 789.7903599241622 47.55369128690781, 862.5457551753283 51.152897402508984 C 935.3011504264945 54.75210351811016, 902.0819701866778 71.73569310366247, 984.7794205204406 72.94746875303522 C 1067.4768708542033 74.15924440240798, 1131.2753544090858 25.297377085943154, 1193.3355565103793 56 C 1255.3957586116726 86.70262291405686, 1230.5718669914615 121.33292863743364, 1233.0202289256142 195.75796040926264 C 1235.468590859767 270.18299218109166, 1203.252209425341 274.8404943822868, 1203.12900424699 353.700127087316 C 1203.005799068639 432.5597597923451, 1225.5210458903405 434.8478185087274, 1232.5274082122098 511.19649122937926 C 1239.5337705340792 587.5451639500311, 1233.2863055875198 594.7256906998605, 1231.1544535344674 659.0948179699233 C 1229.022601481415 723.4639452399861, 1257.5667567867904 740.4977104011947, 1224 768.6730003096304 C 1190.4332432132094 796.8482902180659, 1163.3445177998526 769.2499931807018, 1096.8874263873054 771.7959776036657 C 1030.430334974758 774.3419620266296, 1031.4788612755026 770.7954846875651, 958.1716343498106 778.856938001486 C 884.8644074241187 786.9183913154068, 881.3528289101366 804.4133097971855, 803.6585186845375 804.041790859349 C 725.9642084589384 803.6702719215125, 726.631922643884 772.6263329545436, 647.3943934474141 777.3708622501399 C 568.1568642509442 782.1153915457362, 557.9601364194286 823.7486139824765, 486.70840189865805 823.0199080417341 C 415.45666737788736 822.2912021009915, 428.0543079536951 790.5066120392196, 362.38745536433134 774.4560384871701 C 296.72060277496763 758.4054649351207, 295.8162175456348 758.4316234553288, 224.04099154120308 758.8176138335364 C 152.2657655367714 759.2036042117438, 116.88176390086936 805.7988857073501, 75.28655134660457 776 C 33.69133879233978 746.2011142926498, 68.5188798505111 719.1981630433696, 57.660141324143964 639.6220710041356 C 46.80140279777682 560.0459789649015, 26.065084079292824 539.9089483814969, 31.851597241135998 457.6956318430637 C 37.63811040297917 375.48231530463056, 75.07738744671795 383.0593495318218, 80.80619397151666 310.76880485040306 C 86.53500049631536 238.47826016898432, 60.968371833209986 227.7621660539946, 54.76682334033083 168.53345311738872 C 48.56527484745166 109.30474018078284, 17.692352023090393 93.82361340860079, 56 73.85395310397953 C 94.30764797690959 53.88429279935828, 137.10936082878882 93.69319870120425, 207.99741524796926 88.65481189890369" stroke="none" fill="#ADE8F4"></path><path d="M64 84.99848037083943 C 104.23496864123453 54.07313331266289, 149.25557256413794 46.61388716683447, 223.14502879292183 44.456238147492115 C 297.03448502170573 42.298589128149764, 294.631548270736 67.21500184068861, 359.5578249151356 76.36788429347003 C 424.48410155953513 85.52076674625144, 416.0031723696918 87.48335046901572, 482.8501353705201 81.06776795861775 C 549.6970983713483 74.65218544821978, 551.4674383570454 58.490072607816856, 626.9456769184486 50.70555425187814 C 702.4239154798519 42.92103589593943, 700.0598698900138 41.70035978173167, 784.7630896161329 49.92969453486292 C 869.4663093422521 58.15902928799417, 882.146163703658 77.54517306957628, 965.7585558229252 83.62289326440315 C 1049.3709479421927 89.70061345923001, 1049.597693538078 79.14629863027118, 1119.2126580932022 74.24057531417039 C 1188.8276226483265 69.3348519980696, 1224.1536684601106 33.46055748568827, 1244.2184140434224 64 C 1264.283159626734 94.5394425143117, 1203.9746541101692 115.37322555489462, 1199.471640426449 196.39834537141726 C 1194.9686267427287 277.4234651879399, 1223.416420180881 293.9247725498088, 1226.2063593085413 388.1004792660905 C 1228.9962984362016 482.27618598237217, 1213.1829867642257 479.10411750056477, 1210.6313969370904 573.101172236544 C 1208.079807109955 667.0982269725232, 1239.9031794175135 710.4464696172679, 1216 764.0886982100074 C 1192.0968205824865 817.7309268027469, 1180.2957305747743 786.6144440595687, 1115.0186792670368 787.6700866075022 C 1049.7416279592987 788.7257291554357, 1035.0010779680429 774.4375642385302, 954.8917947690488 768.3112684017415 C 874.7825115700548 762.1849725649528, 873.8147925453966 760.3567432357536, 794.5815464710605 763.1649032603474 C 715.3483003967244 765.9730632849413, 705.9793585433421 788.0359859182133, 637.9588104717044 779.5439085001168 C 569.9382624000667 771.0518310820204, 589.883620301426 736.8043377819927, 522.4993541845098 729.1965935879614 C 455.11508806759366 721.5888493939301, 436.0438963317861 747.1243416135204, 368.4217460040396 749.1129317239918 C 300.7995956762931 751.1015218344633, 326.2830665266006 732.429186960845, 252.01075287352387 737.1509540298471 C 177.73843922044713 741.8727210988491, 120.54440990022668 801.2587549760513, 71.33249139173265 768 C 22.120572883238623 734.7412450239487, 63.09043825074864 690.1214596329042, 55.16307883954777 604.1159341256422 C 47.23571942834692 518.11040861838, 37.84989484781674 498.293460791176, 39.6230537469292 423.9778979709514 C 41.39621264604166 349.66233515072673, 56.61018931573399 370.8087507424319, 62.255714435997625 306.8536828447436 C 67.90123955626126 242.89861494705536, 61.76908283698314 223.62142699867434, 62.20515422798373 168.15762638019828 C 62.64122561898433 112.69382576172225, 23.765031358765484 115.92382742901597, 64 84.99848037083943 C 104.23496864123453 54.07313331266289, 149.25557256413794 46.61388716683447, 223.14502879292183 44.456238147492115" stroke="none" fill="#CAF0F8"></path>
</svg>